<?xml version="1.0" encoding="utf-8"?>
<!-- Generator: Adobe Illustrator 23.0.0, SVG Export Plug-In . SVG Version: 6.00 Build 0)  -->
<svg version="1.1" id="Layer_11" xmlns="http://www.w3.org/2000/svg" xmlns:xlink="http://www.w3.org/1999/xlink" x="0px" y="0px"
	 viewBox="0 0 121.8 122.3" style="enable-background:new 0 0 121.8 122.3;" xml:space="preserve">
<style type="text/css">
	.st0{fill:#FFFFFF;}
</style>
<g id="logoMark">
	<a xlink:href="61.7439215686274" >
		<path id="logoMark_PathItem_" class="st0" d="M26.7,84.4h6.8c4.7,0,8.4-0.4,11-1.3c2.7-0.9,4.9-2.3,6.5-4.3c1.6-2,5-8.5,5.5-12.8
			h8.5c0.5,4.6,3.8,10.8,5.4,12.9c1.6,1.9,3.8,3.3,6.6,4.2c2.8,0.9,6.5,1.3,11.1,1.3h13.6c5.5,0,10.3,1.1,14.3,3.3
			c2.9-5.9,4.8-12.3,5.6-19.1c-0.6-5.5-2.2-10-4.9-13.5c-3.5-4.5-8.5-6.8-15-6.8H86c-6.6,0-12-1.4-16.1-4.1s-7.1-7.1-8.9-13.1h-0.2
			c-1,5.2-3.7,9.3-8,12.5c-4.3,3.1-10,4.7-17,4.7H19.8c-6.6,0-11.5,2.3-15,6.8c-2.7,3.5-4.3,8-4.9,13.5c0.8,6.8,2.8,13.2,5.6,19.1
			c4-2.2,8.8-3.4,14.2-3.4L26.7,84.4L26.7,84.4L26.7,84.4z"/>
	</a>
	<a xlink:href="61.7439215686274" >
		<path id="logoMark_PathItem_-2" class="st0" d="M19.8,37.5h13.7c4.7,0,8.4-0.4,11-1.3c2.7-0.8,4.9-2.3,6.5-4.3
			c1.6-2,5-8.5,5.5-12.8h8.5c0.5,4.6,3.8,10.8,5.4,12.9c1.6,1.9,3.8,3.3,6.6,4.2s6.5,1.3,11.1,1.3h13.6c7.1,0,13,1.8,17.6,5.5
			C111.8,18.1,88.4,0,60.9,0S10,18.1,2.3,43.1C6.9,39.4,12.8,37.5,19.8,37.5L19.8,37.5L19.8,37.5z"/>
	</a>
	<a xlink:href="61.7439215686274" >
		<path id="logoMark_PathItem_-3" class="st0" d="M101.9,95.2H86c-6.6,0-12-1.4-16.1-4.1S62.9,84,61,78h-0.2c-1,5.2-3.7,9.4-8,12.5
			c-4.3,3.1-10,4.7-17,4.7H19.8c-3.3,0-6.2,0.6-8.7,1.8c11.1,15.4,29.3,25.4,49.8,25.4s38.6-10,49.8-25.4
			C108.2,95.8,105.2,95.2,101.9,95.2L101.9,95.2L101.9,95.2z"/>
	</a>
</g>
</svg>
