<svg width="370" height="370" viewBox="0 0 370 370" fill="none" xmlns="http://www.w3.org/2000/svg">
<path fill-rule="evenodd" clip-rule="evenodd" d="M122.075 121.818C166.411 77.4891 186.938 26.132 167.92 7.11409C148.896 -11.9282 97.5112 8.59719 53.1896 52.9352C8.86119 97.2671 -11.6631 148.638 7.37193 167.656C26.3889 186.678 77.7572 166.153 122.079 121.821L122.075 121.818Z" fill="#7C5CFE"/>
<path fill-rule="evenodd" clip-rule="evenodd" d="M317.065 316.818C361.397 272.49 381.925 221.122 362.9 202.108C343.875 183.077 292.529 203.599 248.19 247.939C203.858 292.271 183.337 343.628 202.352 362.643C221.381 381.677 272.751 361.169 317.065 316.818Z" fill="#7C5CFE"/>
<path fill-rule="evenodd" clip-rule="evenodd" d="M122.075 247.943C77.7537 203.601 26.3863 183.076 7.36839 202.108C-11.666 221.125 8.85953 272.5 53.1895 316.818C97.5214 361.167 148.896 381.678 167.92 362.646C186.955 343.616 166.413 292.275 122.075 247.943Z" fill="#7C5CFE"/>
<path fill-rule="evenodd" clip-rule="evenodd" d="M317.065 52.9395C272.747 8.60421 221.379 -11.927 202.344 7.11496C183.335 26.1319 203.851 77.49 248.182 121.815C292.528 166.15 343.888 186.678 362.896 167.653C381.926 148.628 361.409 97.2679 317.061 52.9395H317.065Z" fill="#7C5CFE"/>
<path d="M185.137 39.4434C185.137 119.767 120.01 184.88 39.7002 184.88C120.024 184.88 185.137 249.993 185.137 330.307C185.137 249.993 250.247 184.88 330.56 184.88C250.25 184.88 185.137 119.767 185.137 39.4434Z" fill="#7C5CFE"/>
</svg>
