<svg width="1427" height="370" viewBox="0 0 1427 370" fill="none" xmlns="http://www.w3.org/2000/svg">
<path fill-rule="evenodd" clip-rule="evenodd" d="M122.075 121.818C166.411 77.4891 186.938 26.132 167.92 7.11409C148.896 -11.9282 97.5112 8.59719 53.1896 52.9352C8.86119 97.2671 -11.6631 148.638 7.37193 167.656C26.3889 186.678 77.7572 166.153 122.079 121.821L122.075 121.818Z" fill="#1D1D1D"/>
<path fill-rule="evenodd" clip-rule="evenodd" d="M317.065 316.818C361.397 272.49 381.925 221.122 362.9 202.108C343.875 183.077 292.529 203.599 248.19 247.939C203.858 292.271 183.337 343.628 202.352 362.643C221.381 381.677 272.751 361.169 317.065 316.818Z" fill="#1D1D1D"/>
<path fill-rule="evenodd" clip-rule="evenodd" d="M122.075 247.943C77.7537 203.601 26.3863 183.076 7.36839 202.108C-11.666 221.125 8.85953 272.5 53.1895 316.818C97.5214 361.167 148.896 381.678 167.92 362.646C186.955 343.616 166.413 292.275 122.075 247.943Z" fill="#1D1D1D"/>
<path fill-rule="evenodd" clip-rule="evenodd" d="M317.065 52.9395C272.747 8.60421 221.379 -11.927 202.344 7.11496C183.335 26.1319 203.851 77.49 248.182 121.815C292.528 166.15 343.888 186.678 362.896 167.653C381.926 148.628 361.409 97.2679 317.061 52.9395H317.065Z" fill="#1D1D1D"/>
<path d="M185.137 39.4434C185.137 119.767 120.01 184.88 39.7002 184.88C120.024 184.88 185.137 249.993 185.137 330.307C185.137 249.993 250.247 184.88 330.56 184.88C250.25 184.88 185.137 119.767 185.137 39.4434Z" fill="#1D1D1D"/>
<path d="M1327.85 305.66C1312.25 305.66 1297.97 301.704 1285 293.793C1272.25 285.661 1262.03 274.893 1254.34 261.487C1246.87 247.862 1243.13 232.808 1243.13 216.326C1243.13 204.019 1245.33 192.481 1249.73 181.713C1254.12 170.725 1260.17 161.165 1267.86 153.033C1275.55 144.682 1284.45 138.199 1294.56 133.584C1304.89 128.749 1315.99 126.332 1327.85 126.332C1342.8 126.332 1354.45 129.189 1362.8 134.903C1371.15 140.397 1377.63 147.759 1382.25 156.989V129.958H1426.42V301.375H1383.23V273.355C1378.62 283.024 1372.03 290.826 1363.46 296.76C1355.1 302.693 1343.24 305.66 1327.85 305.66ZM1335.11 265.443C1345 265.443 1353.46 263.245 1360.49 258.85C1367.74 254.235 1373.35 248.192 1377.3 240.72C1381.26 233.248 1383.23 225.116 1383.23 216.326C1383.23 207.315 1381.26 199.074 1377.3 191.602C1373.35 184.13 1367.74 178.087 1360.49 173.472C1353.46 168.857 1345 166.549 1335.11 166.549C1325.66 166.549 1317.31 168.857 1310.05 173.472C1303.02 177.867 1297.53 183.801 1293.57 191.273C1289.61 198.745 1287.64 206.986 1287.64 215.996C1287.64 224.567 1289.61 232.698 1293.57 240.39C1297.53 247.862 1303.02 253.905 1310.05 258.521C1317.31 263.136 1325.66 265.443 1335.11 265.443Z" fill="#1D1D1D"/>
<path d="M1178.9 301.375V60.7324H1223.41V301.375H1178.9Z" fill="#1D1D1D"/>
<path d="M1108.08 301.375V60.7324H1152.58V301.375H1108.08Z" fill="#1D1D1D"/>
<path d="M1001.52 305.661C983.938 305.661 968.444 301.595 955.039 293.464C941.633 285.333 931.194 274.564 923.722 261.159C916.47 247.533 912.844 232.479 912.844 215.997C912.844 199.515 916.69 184.461 924.381 170.835C932.073 156.99 942.512 146.002 955.698 137.871C969.103 129.739 984.377 125.674 1001.52 125.674C1018.66 125.674 1033.71 129.739 1046.68 137.871C1059.87 146.002 1070.09 156.99 1077.34 170.835C1084.81 184.461 1088.55 199.515 1088.55 215.997C1088.55 218.415 1088.44 220.942 1088.22 223.579C1088 226.216 1087.67 228.963 1087.23 231.82H958.994C961.412 241.929 966.247 250.171 973.499 256.544C980.971 262.917 990.311 266.103 1001.52 266.103C1011.19 266.103 1019.54 263.906 1026.57 259.511C1033.82 255.115 1039.43 249.621 1043.38 243.028L1078 269.07C1071.18 279.839 1060.97 288.629 1047.34 295.442C1033.71 302.255 1018.44 305.661 1001.52 305.661ZM1000.86 163.913C990.311 163.913 981.3 167.099 973.828 173.473C966.356 179.846 961.412 188.197 958.994 198.526H1043.71C1041.3 189.076 1036.24 180.945 1028.55 174.132C1021.08 167.319 1011.85 163.913 1000.86 163.913Z" fill="#1D1D1D"/>
<path d="M794.43 305.66C778.827 305.66 764.542 301.704 751.576 293.793C738.83 285.662 728.611 274.893 720.919 261.487C713.447 247.862 709.711 232.808 709.711 216.326C709.711 204.019 711.909 192.481 716.304 181.713C720.699 170.725 726.743 161.165 734.434 153.034C742.126 144.683 751.027 138.199 761.136 133.584C771.465 128.75 782.563 126.332 794.43 126.332C809.154 126.332 820.692 129.079 829.043 134.573C837.394 140.067 843.877 147.32 848.492 156.33V60.7324H892.995V301.375H849.811V273.355C845.196 283.024 838.603 290.826 830.032 296.76C821.681 302.693 809.814 305.66 794.43 305.66ZM801.682 265.443C811.572 265.443 820.033 263.246 827.065 258.85C834.318 254.235 839.922 248.192 843.877 240.72C847.833 233.248 849.811 225.116 849.811 216.326C849.811 207.315 847.833 199.074 843.877 191.602C839.922 184.13 834.318 178.087 827.065 173.472C820.033 168.857 811.572 166.549 801.682 166.549C792.233 166.549 783.882 168.857 776.629 173.472C769.597 177.867 764.103 183.801 760.147 191.273C756.191 198.745 754.213 206.986 754.213 215.996C754.213 224.567 756.191 232.698 760.147 240.39C764.103 247.862 769.597 253.906 776.629 258.521C783.882 263.136 792.233 265.443 801.682 265.443Z" fill="#1D1D1D"/>
<path d="M606.905 305.66C589.324 305.66 573.611 301.594 559.765 293.463C545.92 285.331 535.042 274.563 527.13 261.157C519.439 247.532 515.593 232.478 515.593 215.996C515.593 199.513 519.439 184.459 527.13 170.834C535.042 157.209 545.92 146.33 559.765 138.199C573.611 130.068 589.324 126.002 606.905 126.002C624.706 126.002 640.419 130.068 654.045 138.199C667.89 146.33 678.658 157.209 686.35 170.834C694.261 184.459 698.217 199.513 698.217 215.996C698.217 232.478 694.261 247.532 686.35 261.157C678.658 274.563 667.89 285.331 654.045 293.463C640.419 301.594 624.706 305.66 606.905 305.66ZM606.905 265.113C616.355 265.113 624.596 262.915 631.629 258.52C638.661 253.905 644.045 247.861 647.781 240.389C651.737 232.917 653.715 224.786 653.715 215.996C653.715 206.985 651.737 198.744 647.781 191.272C644.045 183.8 638.661 177.866 631.629 173.471C624.596 168.856 616.355 166.549 606.905 166.549C597.455 166.549 589.214 168.856 582.181 173.471C575.149 177.866 569.655 183.8 565.699 191.272C561.963 198.744 560.095 206.985 560.095 215.996C560.095 224.786 561.963 232.917 565.699 240.389C569.655 247.861 575.149 253.905 582.181 258.52C589.214 262.915 597.455 265.113 606.905 265.113Z" fill="#1D1D1D"/>
</svg>
