<?xml version="1.0" standalone="no"?>
<!DOCTYPE svg PUBLIC "-//W3C//DTD SVG 20010904//EN"
 "http://www.w3.org/TR/2001/REC-SVG-20010904/DTD/svg10.dtd">
<svg version="1.0" xmlns="http://www.w3.org/2000/svg"
 width="1024.000000pt" height="768.000000pt" viewBox="0 0 1024.000000 768.000000"
 preserveAspectRatio="xMidYMid meet">

<g transform="translate(0.000000,768.000000) scale(0.100000,-0.100000)"
fill="#000000" stroke="none">
<path d="M4610 7347 c-154 -63 -277 -205 -309 -355 -6 -29 -11 -85 -11 -124
l0 -71 -51 6 c-75 9 -132 -7 -243 -69 -102 -57 -185 -121 -213 -164 -11 -16 0
-10 30 18 55 50 80 56 41 10 -99 -119 -128 -145 -98 -87 8 17 11 28 5 25 -5
-4 -30 -48 -54 -99 -75 -156 -167 -355 -167 -361 0 -4 -9 -25 -20 -49 -11 -23
-28 -67 -39 -97 -11 -30 -32 -86 -46 -125 -15 -38 -36 -99 -47 -135 -48 -154
-73 -215 -120 -293 -27 -45 -60 -93 -73 -107 -12 -14 -26 -35 -30 -48 -3 -12
-15 -31 -26 -41 -39 -37 -99 -310 -84 -388 3 -20 27 -54 61 -90 31 -32 62 -70
70 -85 8 -16 20 -28 26 -28 7 0 8 -20 3 -67 -5 -38 -7 -113 -7 -168 2 -100 2
-101 67 -249 35 -82 76 -166 90 -187 14 -22 36 -63 49 -91 13 -29 53 -85 89
-123 74 -80 110 -158 133 -283 27 -156 16 -204 -67 -273 -87 -72 -179 -162
-173 -168 3 -3 8 0 13 7 12 20 73 62 82 56 19 -12 5 -37 -69 -126 -43 -51 -91
-113 -107 -137 -16 -24 -35 -45 -41 -48 -21 -8 -37 -139 -30 -236 8 -107 34
-181 82 -233 l35 -39 -29 45 c-88 135 -93 317 -11 470 38 72 84 119 101 102 9
-9 9 -21 0 -50 -18 -58 -15 -209 4 -268 9 -27 33 -72 54 -99 42 -57 71 -112
89 -167 7 -20 19 -42 27 -48 17 -15 18 -3 4 36 -7 19 -7 30 1 40 26 32 57 11
136 -94 35 -46 37 -59 13 -79 -30 -25 -75 -126 -95 -215 -14 -60 -18 -139 -21
-443 -2 -203 1 -425 7 -492 l10 -123 -29 -67 c-62 -143 -66 -242 -16 -382 l28
-79 -18 -133 c-9 -74 -19 -144 -22 -156 l-4 -23 315 0 315 0 0 45 c0 67 57
120 89 82 6 -8 7 -18 3 -22 -4 -5 0 -6 9 -2 21 7 39 -11 32 -31 -5 -11 -3 -13
7 -7 10 6 12 3 8 -13 -4 -13 -2 -20 4 -16 5 3 8 -2 6 -12 -3 -18 24 -19 778
-22 l782 -2 10 27 c6 16 34 98 62 183 56 168 199 520 211 520 11 0 17 -41 24
-155 8 -131 39 -333 71 -467 l26 -108 300 0 c281 0 300 1 287 17 -8 9 -9 14
-3 10 6 -3 11 0 11 7 0 8 -6 12 -14 9 -9 -4 -11 0 -7 11 4 9 1 16 -6 16 -7 0
-10 8 -7 20 3 11 2 18 -1 16 -8 -5 -26 15 -30 33 -1 7 2 9 9 5 8 -4 9 1 4 17
-4 13 -14 28 -21 32 -8 4 -14 13 -14 19 0 6 7 5 18 -3 16 -13 16 -13 -1 7 -9
11 -14 24 -10 27 3 4 1 7 -5 7 -6 0 -9 9 -7 20 2 11 1 19 -3 19 -20 -3 -32 2
-27 11 4 6 10 8 15 5 5 -3 4 8 -1 25 -6 16 -14 28 -19 25 -4 -2 -12 7 -19 21
-6 15 -7 23 -1 19 5 -3 10 -1 10 6 0 6 -8 9 -18 7 -17 -5 -17 -2 -8 19 7 15
17 22 29 19 9 -2 15 0 11 5 -3 5 -1 9 4 9 6 0 8 10 6 23 -3 13 1 8 10 -11 10
-22 20 -31 28 -26 7 4 10 3 5 -1 -4 -5 1 -17 10 -27 16 -18 16 -18 -1 -12 -12
5 -9 -3 10 -23 16 -17 32 -28 36 -26 4 2 5 -6 3 -17 -2 -11 0 -20 6 -20 5 0
14 -11 21 -25 6 -13 14 -22 18 -20 4 2 7 -2 7 -10 0 -8 -4 -15 -9 -15 -5 0 -3
-6 4 -14 10 -10 15 -11 21 -2 5 6 7 2 4 -11 -3 -15 0 -23 8 -23 8 0 18 -8 24
-17 8 -15 11 -15 28 -3 16 14 17 13 5 -1 -10 -14 -10 -18 3 -23 8 -3 15 -1 15
5 0 6 5 7 10 4 6 -3 10 -3 11 2 0 4 2 16 4 26 2 9 -1 15 -6 11 -5 -3 -7 -10
-4 -15 10 -15 -2 -10 -16 8 -12 14 -12 16 0 8 11 -6 13 -4 8 8 -3 10 -2 17 3
17 5 0 5 13 -1 32 -12 42 -12 61 1 53 5 -3 3 10 -5 30 -12 27 -12 35 -3 35 9
0 8 3 -2 10 -12 8 -12 10 -1 10 10 0 11 3 2 13 -6 8 -8 17 -4 20 3 4 2 7 -4 7
-6 0 -11 15 -12 33 -1 53 -4 67 -12 67 -5 0 -6 7 -3 15 4 8 2 15 -4 15 -6 0
-9 8 -8 18 4 25 -15 62 -28 55 -6 -4 -5 1 3 10 11 14 11 17 0 17 -9 0 -10 3
-4 8 14 10 18 35 4 26 -8 -5 -10 1 -7 20 3 14 2 29 -3 32 -4 2 -18 19 -31 36
-19 28 -20 31 -4 25 15 -6 17 -5 8 6 -7 8 -8 18 -4 23 4 4 -2 2 -12 -6 -12 -9
-17 -10 -13 -3 5 7 0 27 -9 45 -16 32 -16 32 1 18 17 -14 18 -14 6 8 -7 13
-10 26 -7 29 9 10 -15 33 -27 26 -6 -3 -7 -1 -3 6 4 6 2 18 -4 26 -10 12 -10
19 1 33 7 9 10 14 6 11 -9 -8 -57 33 -57 47 0 5 4 2 10 -6 5 -8 11 -12 15 -9
3 3 -6 22 -19 42 l-24 36 21 15 22 15 -22 -4 c-20 -3 -38 23 -34 49 1 4 -4 16
-11 25 -11 14 -11 14 4 3 12 -10 18 -10 24 -1 5 8 3 9 -6 4 -10 -6 -12 -4 -7
9 4 10 3 15 -3 11 -6 -3 -11 0 -12 7 -5 46 -29 99 -41 91 -6 -3 -7 -1 -3 5 4
6 14 8 22 5 14 -5 15 -3 5 15 -7 12 -16 22 -21 22 -6 0 -10 7 -10 16 0 9 -5
12 -12 8 -7 -5 -8 -3 -3 6 7 11 10 10 19 -1 6 -8 18 -15 26 -17 10 -2 7 4 -7
18 -13 11 -23 27 -23 35 0 8 -9 20 -20 28 -18 13 -19 15 -5 21 9 3 26 6 37 6
18 0 18 1 3 16 -9 9 -23 13 -33 10 -12 -4 -10 -1 5 11 21 18 21 19 4 40 -10
12 -21 20 -23 18 -3 -3 -5 2 -5 10 0 12 3 12 16 2 12 -10 14 -9 8 5 -4 13 -2
16 11 11 13 -4 12 -2 -3 10 -15 11 -22 12 -28 4 -6 -8 -7 -6 -4 5 3 9 1 19 -6
22 -9 3 -9 5 0 5 7 1 9 13 6 33 -4 29 -3 31 9 15 12 -16 13 -14 14 13 1 16 -3
30 -8 30 -5 0 -6 -5 -3 -10 8 -13 -1 -13 -27 1 -19 10 -20 13 -7 23 21 15 29
40 18 57 -6 10 -9 6 -10 -16 -1 -24 -3 -25 -6 -7 -3 14 -12 22 -26 23 l-22 0
23 9 c12 5 22 15 22 22 0 9 -3 9 -11 -2 -8 -12 -10 -10 -7 11 4 19 0 25 -15
26 -11 1 -24 6 -29 11 -5 5 3 8 20 7 18 -1 29 3 29 11 0 7 -4 11 -9 8 -4 -3
-8 -1 -8 5 0 6 -6 8 -14 5 -8 -3 -17 0 -21 6 -3 6 -3 10 2 9 26 -4 34 2 28 23
-6 18 -4 20 11 14 15 -5 16 -4 7 5 -14 14 -36 2 -29 -17 8 -22 -2 -17 -15 7
-6 12 -7 19 -1 16 5 -4 14 5 21 19 7 15 17 24 25 21 10 -4 12 1 8 16 -3 12 -7
16 -9 10 -3 -7 -11 -9 -20 -6 -12 5 -8 9 13 19 16 7 24 13 17 13 -7 1 -10 8
-7 16 4 8 10 12 15 9 5 -3 9 1 9 10 0 8 5 16 12 18 6 2 8 9 4 16 -4 7 -24 10
-52 7 -25 -2 -42 0 -39 4 3 5 -4 7 -15 4 -11 -3 -20 -1 -20 5 0 5 -6 10 -12 9
-46 -1 -78 4 -73 13 3 5 -3 10 -15 10 -11 0 -40 9 -62 20 -23 11 -50 20 -59
20 -10 0 -20 4 -24 9 -3 5 -19 12 -35 16 -17 4 -30 11 -30 16 0 5 -6 9 -14 9
-8 0 -38 18 -67 40 l-54 40 -18 -22 c-29 -37 -65 -112 -91 -190 -23 -69 -41
-90 -41 -50 0 26 38 129 75 201 31 61 32 65 15 78 -24 17 -34 17 -41 -2 -4 -8
-18 -15 -33 -15 -41 0 -71 -11 -71 -25 0 -8 -10 -17 -22 -21 -13 -4 -35 -20
-50 -35 -19 -20 -28 -24 -28 -14 0 9 -10 20 -22 25 -13 5 -17 9 -10 9 7 1 12
7 10 13 -1 7 1 22 5 33 3 11 8 31 11 45 2 14 19 52 38 85 34 61 58 127 58 162
0 11 -11 30 -25 43 l-25 23 0 -44 c0 -30 -14 -80 -40 -145 -23 -54 -70 -172
-105 -260 -80 -201 -129 -309 -144 -319 -24 -14 -140 136 -187 241 -13 30 -29
52 -34 49 -6 -3 -10 0 -10 8 0 14 -55 124 -95 191 -29 49 -53 64 -62 40 -4
-10 -2 -19 5 -22 7 -2 12 -10 12 -18 0 -8 5 -14 11 -14 5 0 7 5 4 10 -3 6 -1
10 4 10 19 0 12 -22 -15 -46 -14 -13 -28 -24 -32 -24 -4 0 -8 -14 -8 -32 l-1
-32 23 29 c13 17 24 36 24 43 0 20 20 14 29 -10 5 -14 10 -18 15 -10 10 16 26
5 26 -17 0 -10 7 -24 15 -31 8 -7 15 -23 15 -36 0 -13 5 -24 12 -24 31 0 -78
-78 -145 -103 -63 -24 -107 -54 -107 -72 0 -3 24 -5 53 -5 51 0 123 -13 134
-24 11 -11 -66 -210 -141 -364 -25 -51 -46 -95 -46 -99 0 -3 35 52 77 123 76
126 98 158 137 195 26 25 30 24 46 -6 11 -20 11 -36 2 -83 -17 -84 -37 -153
-43 -148 -3 3 -5 -9 -6 -28 -2 -77 -201 -358 -478 -676 -164 -188 -226 -276
-312 -442 l-38 -73 -3 55 c-4 61 23 243 45 305 7 21 27 60 42 85 16 25 37 70
45 100 9 30 41 120 72 200 31 80 57 155 58 167 0 11 4 19 7 17 4 -2 9 4 12 14
2 9 8 26 12 37 6 17 5 18 -5 5 -10 -13 -11 -11 -7 8 3 12 1 20 -3 17 -13 -8
-22 13 -15 35 4 12 11 17 18 13 24 -15 46 -12 52 7 3 11 3 25 -1 31 -4 7 -3 9
4 5 17 -10 23 10 7 24 -8 7 -15 18 -15 24 0 6 5 4 10 -4 5 -8 10 -10 10 -5 0
6 4 4 8 -3 9 -14 62 83 62 114 0 10 3 14 7 10 4 -3 24 30 46 75 31 66 40 98
48 176 7 69 16 103 29 121 17 21 19 35 13 111 -5 80 -4 91 21 144 41 85 103
151 210 222 139 92 303 224 370 296 48 51 57 67 54 93 -2 20 1 31 10 30 6 -1
21 -2 32 -2 15 -2 29 -22 55 -77 l34 -75 68 31 c94 42 252 149 334 226 52 49
76 65 106 70 36 5 56 16 153 79 39 26 110 124 125 174 4 14 22 60 41 102 36
84 59 165 69 243 14 106 34 152 117 262 45 59 98 143 118 187 21 43 40 74 43
70 27 -45 8 -213 -34 -296 -29 -56 -14 -46 20 14 45 78 57 165 42 296 -7 59
-15 132 -17 162 -2 30 -6 66 -9 78 -4 15 -2 21 5 17 14 -9 13 20 -7 155 -9 63
-16 135 -15 160 1 82 -20 184 -55 269 -40 99 -114 230 -154 274 -15 17 -26 34
-24 38 3 4 -2 12 -10 19 -8 7 -15 19 -15 27 0 8 -4 11 -10 8 -5 -3 -7 0 -4 9
6 15 -16 65 -39 88 -7 7 -26 40 -41 73 -16 33 -46 82 -67 111 -22 28 -39 58
-39 67 0 10 -4 17 -9 17 -5 0 -15 24 -21 53 -7 28 -16 57 -21 62 -14 19 -49
105 -41 104 4 0 23 -32 42 -72 19 -40 50 -99 70 -132 32 -52 46 -79 95 -175 5
-11 13 -20 17 -20 5 0 8 -7 8 -15 0 -8 5 -15 11 -15 6 0 9 3 7 8 -6 12 -78
162 -138 287 -42 88 -54 121 -44 123 16 4 19 42 4 42 -5 0 -10 -7 -10 -15 0
-8 -5 -15 -10 -15 -11 0 -22 24 -34 74 -6 26 -5 27 9 13 8 -9 15 -21 15 -28 0
-9 3 -10 11 -2 9 9 -13 71 -48 135 -2 4 3 5 11 2 9 -3 16 -12 16 -20 0 -8 5
-14 10 -14 6 0 10 -7 10 -16 0 -8 5 -12 10 -9 6 3 10 -1 10 -9 0 -9 4 -16 9
-16 6 0 21 -19 35 -42 14 -24 26 -40 26 -36 0 15 -63 148 -70 148 -4 0 -7 6
-7 13 0 36 -200 337 -290 437 -208 231 -446 390 -758 505 -147 55 -219 67
-390 68 -225 1 -342 -32 -495 -142 -36 -26 -78 -55 -93 -65 -19 -11 -41 -44
-63 -93 -38 -84 -60 -92 -57 -22 5 107 122 252 261 324 77 39 73 45 -8 12z
m1830 -997 c0 -5 -4 -10 -10 -10 -5 0 -10 5 -10 10 0 6 5 10 10 10 6 0 10 -4
10 -10z m-1766 -166 c28 -9 75 -27 104 -40 29 -13 59 -24 66 -24 8 0 16 -4 18
-10 2 -5 21 -11 43 -14 22 -3 45 -13 52 -22 7 -9 30 -25 53 -35 22 -10 40 -23
40 -29 0 -5 12 -10 27 -10 14 0 24 -3 20 -6 -3 -4 10 -21 30 -38 33 -29 103
-100 194 -197 20 -21 32 -39 25 -39 -6 0 -5 -4 3 -9 11 -7 10 -10 -5 -14 -106
-29 -147 -44 -161 -59 -22 -24 -20 -120 2 -155 16 -24 20 -25 74 -18 106 14
142 14 178 -1 36 -16 36 -16 12 -27 -14 -8 -26 -25 -30 -45 -4 -18 -13 -38
-22 -45 -8 -7 -18 -25 -21 -40 -4 -15 -11 -25 -16 -22 -6 3 -10 0 -10 -7 0 -7
-14 -33 -30 -58 -40 -60 -67 -148 -75 -242 -7 -76 0 -138 14 -138 4 0 13 21
21 48 l14 47 6 -80 c4 -44 10 -95 14 -112 8 -37 57 -82 89 -84 17 -1 15 -3 -8
-9 l-30 -7 38 -17 c59 -26 143 -38 234 -34 88 3 126 20 82 37 l-24 9 25 5 c14
3 50 11 80 18 30 6 62 15 70 19 8 5 27 2 43 -6 28 -15 28 -15 17 6 -10 19 -8
24 12 38 12 9 27 16 31 14 5 -1 6 2 3 7 -4 5 -2 12 4 16 5 3 10 3 10 -2 0 -4
13 -9 30 -10 44 -3 135 -50 164 -83 49 -59 60 -110 50 -230 -5 -59 -6 -106 -2
-104 3 2 12 -1 20 -8 14 -13 29 -19 60 -21 10 -1 18 -5 18 -9 0 -4 -27 -5 -59
-1 l-60 6 -15 -57 c-9 -31 -23 -82 -32 -113 -62 -222 -188 -374 -466 -558
l-87 -57 -8 -57 c-10 -76 -10 -339 1 -432 11 -95 0 -118 -87 -174 -69 -46
-110 -63 -150 -64 -23 -1 -31 5 -43 34 -7 19 -14 50 -14 69 0 29 -20 66 -36
66 -3 0 -27 -18 -55 -40 -51 -40 -69 -48 -69 -30 0 6 -6 10 -14 10 -26 0 -38
30 -52 127 -9 70 -10 99 -2 104 7 4 8 21 4 43 -6 32 -4 37 16 46 21 8 21 9 3
10 -19 1 -19 2 -2 9 17 6 17 8 3 20 -11 10 -29 11 -63 6 -38 -6 -44 -9 -28
-16 11 -4 15 -8 9 -8 -13 -1 -14 -31 -1 -31 13 0 1 -318 -13 -335 -6 -7 -8
-20 -4 -29 5 -12 1 -16 -17 -14 -18 2 -24 -2 -23 -14 1 -10 -2 -18 -7 -18 -5
0 -9 -8 -10 -17 0 -11 -3 -13 -6 -5 -7 19 -23 4 -23 -24 0 -13 -4 -24 -10 -24
-5 0 -10 9 -10 19 0 32 -20 35 -21 4 -2 -27 -2 -27 -6 -3 -3 14 -10 31 -16 38
-8 10 -8 15 0 20 8 5 7 19 -3 47 -7 22 -14 69 -15 105 -1 51 -3 59 -9 35 -6
-23 -8 -15 -10 40 -3 101 -6 136 -14 173 -5 22 -4 32 4 32 6 0 10 12 8 27 -2
22 -21 37 -113 90 -60 35 -194 120 -296 188 -282 188 -389 304 -468 505 -96
248 -111 331 -116 655 -3 143 -2 270 1 282 l6 21 51 -26 c33 -17 45 -28 34
-30 -22 -4 -22 -22 0 -22 13 0 14 -3 5 -12 -8 -8 -8 -17 -1 -30 5 -10 7 -22 4
-27 -7 -13 5 -42 16 -35 5 3 9 -10 8 -28 -1 -31 -1 -32 -9 -8 l-8 25 -1 -27
c-1 -19 4 -28 14 -28 17 0 20 -16 5 -25 -5 -3 -7 -12 -3 -20 3 -9 -1 -15 -9
-15 -11 0 -14 -13 -13 -52 1 -57 4 -67 41 -143 13 -28 24 -60 24 -72 0 -12 6
-23 13 -25 6 -3 13 -16 14 -29 9 -115 13 -143 27 -158 9 -10 16 -25 16 -34 0
-9 7 -17 15 -17 8 0 15 -4 15 -10 0 -5 7 -10 15 -10 8 0 23 -10 35 -22 18 -20
20 -20 20 -3 0 17 1 17 20 0 11 -10 20 -14 20 -10 0 5 8 0 18 -11 13 -13 18
-32 16 -62 -2 -58 21 -121 57 -154 16 -15 29 -24 29 -21 0 3 6 1 13 -4 22 -17
58 1 81 41 25 45 69 67 105 54 14 -5 67 -43 119 -84 117 -95 179 -124 277
-131 134 -10 259 40 245 97 -16 65 7 82 159 120 42 10 96 27 121 36 58 22 109
13 155 -28 41 -35 75 -33 101 7 22 33 14 113 -12 132 -11 7 -25 17 -32 23 -7
6 -16 9 -21 6 -5 -3 -8 2 -7 11 0 9 -5 18 -13 21 -10 3 -11 0 -5 -9 6 -12 5
-12 -8 -1 -20 16 -88 13 -88 -4 0 -7 4 -14 9 -16 4 -1 11 -13 15 -25 6 -19 -1
-28 -49 -59 -119 -76 -257 -101 -321 -58 -47 32 -91 38 -158 20 -55 -14 -62
-14 -122 6 l-63 22 -103 -22 c-57 -12 -115 -22 -129 -22 -30 0 -204 79 -176
80 10 0 26 13 35 30 9 16 20 30 25 30 4 0 7 6 7 14 0 15 10 20 70 31 19 4 42
13 50 20 8 8 20 14 25 15 6 1 24 8 42 17 23 10 30 19 26 31 -4 10 -3 14 1 10
4 -3 9 -13 10 -22 3 -19 47 -62 59 -58 5 1 19 -3 31 -11 11 -8 31 -13 43 -12
17 1 20 -1 12 -11 -15 -18 6 -27 31 -14 32 17 70 -13 70 -56 0 -38 21 -54 45
-34 22 18 18 51 -12 97 -19 29 -35 43 -57 47 -22 4 -37 16 -51 43 -11 20 -29
41 -40 47 -11 6 -23 15 -26 20 -9 11 -49 -29 -49 -49 0 -22 -31 -18 -37 5 -3
11 -9 20 -14 20 -18 0 -8 26 26 69 38 48 43 61 20 61 -8 0 -15 -4 -15 -10 0
-5 -7 -7 -15 -4 -8 4 -17 -1 -21 -9 -3 -9 -12 -13 -19 -11 -16 7 -14 130 3
160 5 10 6 29 2 45 -5 15 -6 29 -4 31 2 3 15 48 29 101 60 231 14 382 -167
557 -21 19 -38 41 -38 48 0 7 -7 15 -16 19 -8 3 -13 12 -10 20 3 8 1 11 -4 8
-6 -4 -21 7 -35 23 -14 17 -37 33 -52 37 -15 3 -31 11 -35 18 -4 7 -15 4 -35
-8 -15 -11 -34 -18 -41 -17 -7 2 -25 -6 -41 -18 -16 -11 -34 -20 -40 -20 -28
0 -194 -151 -193 -177 1 -4 -9 -18 -20 -30 -12 -13 -17 -23 -12 -23 5 0 2 -5
-8 -10 -11 -7 -15 -19 -12 -40 3 -17 3 -30 1 -30 -15 0 -75 25 -89 38 -10 8
-18 10 -18 5 0 -12 61 -68 82 -75 29 -11 0 -17 -34 -8 -43 12 -69 46 -57 75 4
11 8 36 8 55 1 47 64 167 109 207 80 71 186 101 347 97 123 -3 250 -11 310
-19 22 -3 45 -2 50 3 31 22 47 131 25 172 -31 58 -294 76 -460 31 -82 -22
-173 -64 -216 -99 -11 -10 -37 -39 -57 -66 -21 -26 -37 -41 -37 -32 0 8 5 18
10 21 6 4 8 10 5 15 -3 4 5 32 17 61 77 194 160 348 225 419 13 14 23 28 23
32 0 10 117 128 127 128 3 0 15 7 24 16 10 9 40 27 66 40 42 21 58 23 127 18
44 -2 102 -12 130 -20z m2056 -729 c12 -11 31 -33 43 -50 14 -21 5 -15 -32 20
-49 46 -111 125 -111 140 0 4 17 -15 39 -42 21 -26 48 -57 61 -68z m-30 -35
c6 -11 8 -20 6 -20 -3 0 -10 9 -16 20 -6 11 -8 20 -6 20 3 0 10 -9 16 -20z
m-2452 -347 c-20 -21 -43 -53 -53 -72 -22 -44 -30 -126 -16 -177 16 -58 79
-126 143 -154 51 -22 52 -23 28 -32 -14 -6 -60 -8 -102 -5 -194 13 -299 160
-223 312 16 30 31 55 34 55 3 0 25 18 48 39 44 41 102 66 134 58 10 -3 19 -1
19 4 0 5 5 9 12 9 7 0 -4 -17 -24 -37z m1625 -53 c4 0 22 -15 40 -32 22 -22
39 -52 49 -90 15 -54 15 -59 -4 -97 -24 -50 -91 -94 -174 -115 -70 -18 -118
-20 -64 -3 19 6 56 32 81 57 71 71 86 172 42 278 -15 36 -15 37 4 20 11 -10
23 -18 26 -18z m-45 -12 c16 -16 15 -45 0 -51 -7 -2 -28 -2 -45 0 -26 4 -33
10 -33 27 0 13 3 26 7 29 11 11 58 8 71 -5z m-1285 -66 c15 -17 15 -18 -11
-16 -36 2 -36 2 -22 19 15 19 14 19 33 -3z m877 -42 c1 -74 71 -177 145 -212
l40 -19 -35 5 c-110 16 -134 26 -173 72 -26 31 -31 109 -10 166 19 52 32 47
33 -12z m-2281 -104 c0 -17 2 -43 6 -58 5 -21 4 -28 -7 -28 -16 0 -42 42 -52
82 -4 18 -1 32 10 43 22 22 44 2 43 -39z m838 -82 c-3 -3 -12 -4 -19 -1 -8 3
-5 6 6 6 11 1 17 -2 13 -5z m8 -23 c3 -5 1 -12 -5 -16 -5 -3 -10 1 -10 9 0 18
6 21 15 7z m5 -41 c0 -5 -4 -10 -10 -10 -5 0 -10 5 -10 10 0 6 5 10 10 10 6 0
10 -4 10 -10z m2968 -15 c-3 -3 -9 2 -12 12 -6 14 -5 15 5 6 7 -7 10 -15 7
-18z m-3498 -1810 c0 -8 -4 -15 -10 -15 -5 0 -7 7 -4 15 4 8 8 15 10 15 2 0 4
-7 4 -15z m1067 -207 c-31 -84 -30 -82 -8 -149 11 -35 26 -102 31 -149 6 -47
23 -141 39 -210 38 -165 61 -290 61 -333 0 -57 -33 -86 -106 -97 -121 -16
-138 -43 -132 -204 3 -88 10 -126 30 -181 14 -38 35 -96 47 -127 31 -85 30
-262 -3 -406 -14 -59 -29 -160 -34 -225 -6 -86 -13 -122 -25 -134 -15 -15 -17
-15 -25 8 -6 13 -26 42 -46 64 -20 22 -39 51 -42 65 -11 49 -16 56 -23 32 -6
-21 -7 -21 -19 10 -7 18 -17 40 -21 48 -90 171 -86 159 -88 260 -1 85 2 106
34 200 20 58 39 107 43 110 19 13 40 74 40 117 0 60 34 278 50 318 21 56 120
230 150 264 33 37 37 28 16 -34 -7 -22 -16 -68 -19 -103 l-6 -62 42 7 c23 3
47 11 52 17 7 7 11 61 10 137 l0 126 -56 69 c-67 81 -86 117 -95 173 -7 45
-37 97 -66 115 -25 15 -51 -3 -59 -40 -4 -16 -14 -42 -23 -59 -9 -16 -16 -42
-16 -57 0 -16 -4 -28 -9 -28 -5 0 -11 -15 -14 -32 -17 -113 -52 -248 -64 -248
-39 0 -1 203 73 386 35 88 124 213 228 322 39 41 63 54 53 30z m-1037 -72 c0
-22 -17 -37 -33 -30 -17 6 -24 54 -10 67 8 9 43 -22 43 -37z m224 -18 c10 -38
7 -48 -13 -48 -26 0 -33 13 -25 45 8 31 30 33 38 3z m2024 -500 c28 -45 28
-48 7 -23 -29 33 -62 90 -48 82 5 -3 24 -30 41 -59z m929 -120 c-3 -8 -6 -5
-6 6 -1 11 2 17 5 13 3 -3 4 -12 1 -19z m38 -148 c3 -6 -1 -7 -9 -4 -18 7 -21
14 -7 14 6 0 13 -4 16 -10z m-1155 -36 c0 -14 -3 -14 -15 -4 -8 7 -15 14 -15
16 0 2 7 4 15 4 8 0 15 -7 15 -16z m-16 -34 c7 0 21 -9 32 -21 18 -20 18 -22
1 -34 -21 -15 -23 -29 -3 -22 10 4 13 1 9 -8 -3 -8 -10 -12 -17 -8 -6 4 -20 6
-32 5 -34 -5 -77 16 -70 34 4 10 1 14 -6 12 -7 -3 -13 -11 -13 -18 0 -7 -6
-15 -12 -17 -15 -5 -17 13 -3 22 6 4 8 10 5 15 -5 9 32 40 47 40 5 0 6 -12 3
-27 l-5 -28 12 25 c17 34 32 50 36 39 2 -5 9 -9 16 -9z m-119 -10 c3 -5 -1
-10 -9 -10 -9 0 -16 5 -16 10 0 6 4 10 9 10 6 0 13 -4 16 -10z m206 -13 c-13
-13 -26 -3 -16 12 3 6 11 8 17 5 6 -4 6 -10 -1 -17z m-258 -43 c9 -9 -4 -35
-14 -28 -5 3 -9 12 -9 20 0 14 12 19 23 8z m257 -29 c0 -25 -4 -35 -16 -35
-11 0 -14 5 -9 18 4 9 10 25 12 35 8 27 13 20 13 -18z m-170 -16 c0 16 21 13
43 -6 11 -10 17 -13 14 -7 -8 13 30 27 38 14 3 -5 -4 -15 -15 -23 -27 -19 -61
-11 -53 11 5 14 3 14 -9 -1 -13 -18 -15 -17 -33 5 -15 17 -16 19 -2 9 11 -9
17 -10 17 -2z m1320 -171 c10 -3 7 -6 -9 -11 -13 -3 -20 -3 -17 0 3 4 0 13 -7
22 -10 14 -10 14 3 5 8 -6 22 -13 30 -16z m-1020 -272 c0 -2 -7 -7 -16 -10 -8
-3 -12 -2 -9 4 6 10 25 14 25 6z m87 -21 c0 -8 -4 -12 -9 -9 -5 3 -6 10 -3 15
9 13 12 11 12 -6z m-57 -40 c-8 -9 -9 -15 -2 -15 6 0 14 5 17 10 3 6 12 10 18
10 8 0 7 -4 -2 -9 -8 -5 -16 -17 -17 -25 -3 -18 -2 -18 21 -10 12 5 13 9 5 14
-8 5 -7 9 5 13 9 4 13 3 10 -3 -6 -9 29 -33 37 -25 2 3 4 -12 3 -33 -1 -20 3
-43 9 -51 14 -19 17 -43 3 -34 -19 12 -51 12 -81 -1 l-29 -12 29 -12 c27 -11
27 -11 10 3 -20 15 -11 20 17 9 10 -3 14 -14 11 -30 -2 -13 0 -24 6 -24 6 0 8
5 4 11 -3 6 8 3 25 -5 33 -17 42 -30 14 -19 -11 4 -14 3 -9 -5 4 -7 -8 -5 -30
4 -20 8 -39 13 -42 10 -3 -3 1 -6 9 -6 12 0 11 -2 -1 -11 -13 -9 -12 -10 3 -5
15 5 77 -17 77 -28 0 -5 -55 1 -74 9 -14 6 -17 5 -12 -3 4 -7 24 -19 43 -27
20 -9 34 -18 30 -21 -3 -3 -14 -1 -25 5 -30 16 -49 13 -26 -4 10 -8 14 -15 8
-15 -5 0 -19 7 -30 15 -11 8 -14 15 -6 15 17 0 15 17 -4 24 -8 3 -12 2 -9 -4
3 -6 1 -10 -6 -10 -19 0 18 -37 52 -50 16 -7 28 -15 26 -17 -6 -5 -58 17 -77
33 -12 10 -15 9 -16 -9 -1 -16 9 -27 33 -38 25 -13 31 -13 22 -3 -7 8 -7 14
-1 14 5 0 15 -6 21 -14 10 -11 8 -16 -8 -21 -13 -4 -35 3 -62 21 l-42 26 24
-33 c22 -32 33 -59 22 -59 -2 0 -12 4 -22 9 -13 7 -18 6 -18 -4 0 -7 6 -11 12
-9 6 3 12 -2 12 -11 0 -10 -6 -14 -16 -10 -37 15 -59 12 -56 -6 4 -22 -6 -24
-23 -7 -14 14 -16 32 -2 23 5 -3 7 0 4 9 -6 16 -34 30 -42 21 -3 -3 -1 -5 4
-5 5 0 10 -9 11 -21 2 -18 0 -19 -15 -7 -12 9 -11 5 3 -11 18 -22 19 -24 2
-18 -10 4 -23 7 -28 7 -6 0 -7 5 -4 10 3 6 4 10 1 10 -17 0 -13 -22 6 -29 21
-9 20 -9 -9 -8 -17 1 -29 6 -26 11 3 4 -5 5 -18 2 -13 -3 -18 -3 -11 0 15 7
16 34 1 34 -5 0 -7 -6 -3 -12 4 -7 3 -9 -1 -5 -5 4 -10 14 -11 22 -2 11 2 12
16 5 28 -15 38 -11 16 5 -13 10 -15 15 -6 15 9 0 7 5 -6 15 -18 14 -17 14 9 3
20 -8 24 -14 15 -20 -10 -6 -8 -8 5 -8 9 0 17 7 17 15 0 8 8 15 18 16 14 0 14
2 -3 9 -27 12 -43 12 -25 0 8 -5 10 -10 4 -10 -5 0 -19 7 -30 16 -10 8 -13 13
-6 9 6 -3 12 -2 12 3 0 10 -24 22 -43 22 -7 0 -6 -4 3 -10 11 -7 11 -10 2 -10
-7 0 -10 -4 -7 -10 3 -6 -1 -7 -10 -3 -13 5 -14 7 -3 14 10 7 10 9 -2 10 -8 0
-2 6 14 13 25 11 26 14 9 18 -11 3 -20 12 -20 21 0 9 6 13 15 10 11 -5 11 -7
1 -14 -8 -5 1 -7 23 -6 30 2 35 5 27 19 -5 9 -17 22 -27 28 -11 8 -12 10 -2 7
57 -16 59 -14 10 13 -30 17 -46 28 -35 26 11 -3 27 -1 35 4 13 9 13 10 0 10
-13 0 -13 1 0 10 8 5 22 9 30 9 10 0 8 -3 -5 -9 l-20 -9 20 0 c23 0 117 48 95
49 -13 0 -13 2 0 9 9 7 2 9 -23 7 -21 -2 -41 -7 -45 -11 -4 -4 4 -4 18 -1 19
6 21 5 10 -3 -12 -9 -13 -11 -1 -11 8 0 12 -3 9 -6 -4 -3 -17 0 -30 7 -12 7
-27 12 -31 11 -5 -1 -6 2 -2 8 3 5 15 10 25 10 25 0 35 17 20 35 -9 10 -7 16
7 23 10 6 17 14 15 19 -2 4 2 9 10 11 9 2 8 0 -2 -7 -9 -6 -10 -11 -3 -11 18
0 43 12 39 19 -2 3 15 7 38 8 30 1 36 -1 21 -7 l-20 -9 20 -2 c11 -1 31 -3 45
-3 14 -1 26 -5 27 -10 2 -10 24 -26 37 -26 5 0 3 7 -4 15 -7 8 -9 15 -4 15 5
0 -1 7 -14 15 -16 12 -27 13 -41 5 -25 -13 -41 -13 -21 0 13 9 13 10 0 10 -11
0 -12 3 -3 8 6 4 -6 8 -29 8 -26 1 -35 -2 -27 -7 20 -12 2 -11 -22 1 -10 6
-19 16 -19 23 0 8 3 8 9 -2 6 -10 13 -11 29 -2 26 14 35 14 27 1 -3 -5 -2 -10
2 -10 5 0 14 9 21 20 7 11 15 20 18 20 4 0 1 -7 -6 -15z m-105 -35 c3 -5 -1
-10 -10 -10 -9 0 -13 5 -10 10 3 6 8 10 10 10 2 0 7 -4 10 -10z m255 -76 c0
-2 -9 0 -20 6 -11 6 -20 13 -20 16 0 2 9 0 20 -6 11 -6 20 -13 20 -16z m-316
-23 c-2 -3 -12 3 -22 13 -16 17 -16 18 5 5 12 -7 20 -15 17 -18z m260 -36 c15
-8 31 -13 35 -10 4 2 8 -2 8 -9 0 -8 -7 -12 -15 -8 -11 4 -13 1 -7 -7 6 -11 3
-11 -16 -1 -34 18 -38 24 -11 16 33 -11 27 2 -10 18 -18 8 -28 15 -23 15 6 1
23 -6 39 -14z m-294 -5 c8 -5 11 -10 5 -10 -5 0 -17 5 -25 10 -8 5 -10 10 -5
10 6 0 17 -5 25 -10z m-85 -80 c3 -6 -1 -7 -9 -4 -18 7 -21 14 -7 14 6 0 13
-4 16 -10z m74 -46 c14 -12 -19 -1 -35 12 -18 14 -18 14 6 3 14 -6 27 -13 29
-15z m241 -54 c8 -5 11 -10 5 -10 -5 0 -17 5 -25 10 -8 5 -10 10 -5 10 6 0 17
-5 25 -10z m7 -72 c-13 -8 -5 -11 28 -9 17 1 16 -1 -4 -9 -19 -8 -28 -7 -40 5
-13 13 -13 15 -1 15 10 0 6 8 -10 21 l-25 21 32 -18 c23 -12 29 -21 20 -26z
m12 -34 c5 4 13 1 17 -5 5 -8 3 -9 -5 -4 -9 5 -12 1 -10 -11 2 -11 0 -25 -4
-31 -11 -18 -41 -17 -34 1 4 10 -4 12 -31 10 -26 -2 -32 0 -22 7 13 9 13 10 0
8 -8 -1 -22 -1 -30 0 -13 1 -13 3 -1 10 9 6 22 6 33 0 10 -6 23 -7 28 -4 5 3
18 -3 29 -14 11 -11 22 -17 25 -13 5 8 -8 35 -15 32 -2 -1 -12 2 -22 6 -14 5
-16 9 -6 15 7 4 19 3 26 -2 7 -6 17 -8 22 -5z m-129 -39 c6 4 17 1 25 -5 8 -6
19 -9 25 -5 6 4 20 -2 31 -14 11 -12 15 -21 9 -21 -5 0 -13 0 -17 0 -5 0 -8 4
-8 9 0 5 -3 12 -6 15 -3 3 -6 -2 -6 -12 0 -22 17 -33 42 -26 18 4 18 4 2 -6
-9 -6 -22 -8 -29 -4 -8 5 -9 2 -5 -10 5 -13 3 -15 -11 -7 -10 6 -24 6 -32 1
-8 -5 -25 -3 -41 6 -36 18 -62 18 -29 -1 15 -9 19 -14 10 -15 -13 0 -13 -1 0
-10 8 -5 15 -14 15 -20 0 -7 11 -18 25 -25 14 -8 21 -14 17 -15 -10 0 -97 50
-97 56 0 2 6 1 13 -2 8 -3 14 2 14 11 0 10 -6 14 -14 10 -27 -10 -52 13 -47
42 3 15 7 30 10 32 2 3 25 -5 50 -18 26 -12 49 -20 52 -17 3 3 -12 13 -33 22
-33 14 -36 17 -22 26 10 5 14 15 10 21 -3 7 3 4 15 -6 11 -11 26 -16 32 -12z
m-178 -3 c-7 -2 -9 -9 -5 -15 3 -7 2 -8 -2 -4 -16 14 -14 36 3 29 10 -4 12 -7
4 -10z m1288 -68 c0 -8 -6 -11 -15 -8 -8 4 -15 1 -15 -7 0 -7 -2 -10 -5 -7 -3
3 -3 12 0 20 7 18 35 20 35 2z m-1080 -34 c-8 -5 -10 -10 -4 -10 5 0 19 -7 30
-15 18 -13 18 -14 -5 -8 -18 5 -22 3 -16 -6 6 -10 3 -11 -14 -2 -28 16 -19 51
14 51 6 0 3 -5 -5 -10z m1080 0 c0 -5 -12 -10 -27 -9 -25 0 -26 1 -8 9 27 12
35 12 35 0z m-1033 -6 c-3 -3 -12 -4 -19 -1 -8 3 -5 6 6 6 11 1 17 -2 13 -5z
m-120 -40 c-3 -3 -12 -4 -19 -1 -8 3 -5 6 6 6 11 1 17 -2 13 -5z m24 -21 c-11
-5 -11 -7 0 -14 11 -7 11 -9 1 -9 -7 0 -10 -5 -6 -12 4 -6 3 -8 -4 -5 -8 6 -9
23 -3 45 1 1 7 2 14 1 8 0 8 -2 -2 -6z"/>
<path d="M4896 4681 c-4 -7 -5 -15 -2 -18 9 -9 19 4 14 18 -4 11 -6 11 -12 0z"/>
<path d="M4882 4633 c1 -5 -9 -30 -21 -58 -12 -27 -28 -69 -34 -92 -6 -24 -15
-43 -19 -43 -4 0 -8 -5 -8 -12 0 -6 10 -3 23 8 12 11 35 28 50 38 15 9 25 22
21 28 -4 5 -1 14 5 18 12 7 21 84 13 108 -4 13 -33 17 -30 5z"/>
<path d="M4884 4406 c-8 -21 6 -68 22 -73 15 -5 26 55 14 75 -8 14 -9 14 -10
2 0 -13 -1 -13 -10 0 -8 12 -10 12 -16 -4z"/>
<path d="M5530 4341 c0 -6 4 -13 10 -16 6 -3 7 1 4 9 -7 18 -14 21 -14 7z"/>
<path d="M5428 4318 c-12 -11 -14 -19 -6 -24 7 -4 5 -10 -5 -16 -15 -8 -15
-10 2 -27 10 -10 44 -26 75 -36 45 -14 59 -15 71 -5 8 7 22 10 30 6 12 -4 15
-1 13 12 -1 9 1 23 5 30 5 8 2 15 -10 19 -10 4 -21 11 -25 17 -4 6 -17 11 -30
12 -13 1 -34 6 -48 12 -14 5 -29 7 -34 5 -4 -3 -11 -1 -15 4 -3 5 -14 1 -23
-9z"/>
<path d="M5040 4282 c-29 -24 -20 -39 31 -52 52 -14 79 -6 79 26 0 42 -70 58
-110 26z"/>
<path d="M4918 3663 c-26 -11 -38 -22 -38 -36 0 -18 5 -19 53 -14 94 9 142 48
76 61 -41 8 -47 7 -91 -11z"/>
<path d="M5500 1659 c-10 -18 -10 -19 8 -10 11 6 23 7 28 3 5 -4 2 1 -5 11
-17 22 -18 21 -31 -4z"/>
<path d="M5830 1036 c0 -3 9 -10 20 -16 11 -6 20 -8 20 -6 0 3 -9 10 -20 16
-11 6 -20 8 -20 6z"/>
<path d="M5710 1006 c0 -2 7 -7 16 -10 8 -3 12 -2 9 4 -6 10 -25 14 -25 6z"/>
<path d="M5668 993 c-23 -6 -17 -47 7 -52 13 -2 16 1 12 13 -4 9 -1 16 6 16 8
0 8 3 -2 9 -11 7 -11 9 0 14 17 6 1 7 -23 0z"/>
<path d="M5790 990 c-13 -9 -13 -10 0 -10 13 0 13 -1 0 -11 -12 -8 -10 -9 7
-4 13 3 31 2 40 -4 13 -7 14 -10 4 -11 -24 0 -4 -12 26 -16 l28 -3 -25 20
c-14 10 -36 22 -50 26 -23 6 -23 7 -5 14 13 5 15 8 5 8 -8 0 -22 -4 -30 -9z"/>
<path d="M5705 960 c-3 -6 1 -7 9 -4 18 7 21 14 7 14 -6 0 -13 -4 -16 -10z"/>
<path d="M5748 868 c5 -5 16 -8 23 -6 8 3 3 7 -10 11 -17 4 -21 3 -13 -5z"/>
<path d="M5698 863 c7 -3 16 -2 19 1 4 3 -2 6 -13 5 -11 0 -14 -3 -6 -6z"/>
<path d="M5624 852 c4 -7 1 -12 -6 -12 -8 0 -6 -5 5 -11 10 -6 21 -8 24 -5 4
3 1 6 -6 6 -7 0 -10 4 -6 9 3 5 0 13 -6 17 -8 4 -9 3 -5 -4z"/>
<path d="M5562 842 c-9 -6 -5 -12 13 -20 34 -16 34 -15 28 8 -6 21 -20 25 -41
12z"/>
<path d="M5847 809 c7 -7 15 -10 18 -7 3 3 -2 9 -12 12 -14 6 -15 5 -6 -5z"/>
<path d="M5697 797 c4 -6 0 -8 -10 -4 -9 3 -18 3 -21 -1 -8 -13 32 -11 43 2 8
9 7 13 -4 13 -8 0 -11 -5 -8 -10z"/>
<path d="M5621 787 c2 -1 13 -9 24 -17 19 -14 19 -14 6 3 -7 9 -18 17 -24 17
-6 0 -8 -1 -6 -3z"/>
<path d="M5595 770 c3 -5 8 -10 11 -10 2 0 4 5 4 10 0 6 -5 10 -11 10 -5 0 -7
-4 -4 -10z"/>
<path d="M5553 738 c3 -17 47 -48 67 -48 9 0 11 3 5 8 -20 14 -16 34 5 27 11
-3 28 -1 37 5 16 10 15 10 -4 5 -12 -3 -32 -1 -44 5 -17 10 -20 9 -14 -1 6 -9
3 -11 -9 -6 -10 4 -15 3 -11 -3 3 -6 1 -10 -4 -10 -6 0 -11 7 -11 15 0 8 -4
15 -10 15 -5 0 -9 -6 -7 -12z"/>
<path d="M5690 671 c0 -11 4 -22 9 -25 5 -4 7 3 4 14 -3 12 0 20 6 20 7 0 10
-4 6 -9 -3 -5 0 -13 6 -17 8 -4 9 -3 5 4 -9 15 -1 15 25 2 10 -6 19 -8 19 -6
0 7 -56 36 -70 36 -5 0 -10 -9 -10 -19z"/>
<path d="M5656 572 c-3 -5 10 -16 29 -25 20 -9 35 -20 34 -24 -3 -20 2 -27 10
-14 7 10 4 19 -7 29 -16 13 -16 13 1 8 24 -7 21 1 -4 15 -15 8 -19 8 -15 0 10
-16 -5 -13 -25 5 -9 8 -20 11 -23 6z"/>
<path d="M5605 540 c3 -5 0 -10 -7 -10 -9 0 -9 -3 2 -10 13 -9 13 -10 0 -10
-13 0 -13 -1 0 -10 8 -5 20 -10 25 -10 6 0 4 4 -4 9 -27 17 26 23 59 6 16 -8
30 -13 30 -10 0 4 -98 55 -107 55 -3 0 -1 -4 2 -10z"/>
<path d="M6592 6020 c0 -14 2 -19 5 -12 2 6 2 18 0 25 -3 6 -5 1 -5 -13z"/>
<path d="M6641 5934 c0 -11 3 -14 6 -6 3 7 2 16 -1 19 -3 4 -6 -2 -5 -13z"/>
<path d="M6670 2070 c0 -6 7 -10 15 -10 8 0 15 2 15 4 0 2 -7 6 -15 10 -8 3
-15 1 -15 -4z"/>
<path d="M6686 2008 c3 -5 10 -6 15 -3 13 9 11 12 -6 12 -8 0 -12 -4 -9 -9z"/>
<path d="M6744 1721 c4 -5 1 -11 -6 -13 -8 -3 -7 -6 3 -10 10 -4 15 1 16 13 1
10 -3 19 -8 19 -6 0 -8 -4 -5 -9z"/>
<path d="M6755 1639 c-4 -6 -4 -13 -1 -16 3 -4 6 -1 6 6 0 7 5 9 12 5 7 -4 8
-3 4 4 -9 15 -13 15 -21 1z"/>
<path d="M6745 1520 c3 -5 10 -10 16 -10 5 0 9 5 9 10 0 6 -7 10 -16 10 -8 0
-12 -4 -9 -10z"/>
<path d="M6783 1498 c-2 -18 0 -20 7 -8 12 18 13 30 2 30 -4 0 -9 -10 -9 -22z"/>
<path d="M4917 1376 c-3 -8 -21 -19 -39 -25 -30 -8 -31 -9 -7 -10 25 -1 68 33
57 44 -3 3 -8 -1 -11 -9z"/>
<path d="M6829 1207 c6 -6 18 -12 27 -13 12 -2 14 0 5 9 -6 6 -18 12 -27 13
-12 2 -14 0 -5 -9z"/>
<path d="M4265 119 c-4 -6 -4 -13 -1 -16 3 -3 1 -14 -5 -24 -6 -11 -6 -19 0
-19 5 0 8 -7 7 -15 -1 -18 49 -53 60 -42 12 11 11 94 -1 94 -43 -1 -57 4 -51
18 6 17 0 20 -9 4z m36 -60 c8 -17 8 -20 -1 -14 -7 4 -16 2 -20 -5 -5 -7 -7
-2 -7 14 0 31 12 34 28 5z"/>
</g>
</svg>
