<?xml version="1.0" standalone="no"?>
<!DOCTYPE svg PUBLIC "-//W3C//DTD SVG 20010904//EN"
 "http://www.w3.org/TR/2001/REC-SVG-20010904/DTD/svg10.dtd">
<svg version="1.0" xmlns="http://www.w3.org/2000/svg"
 width="1024.000000pt" height="768.000000pt" viewBox="0 0 1024.000000 768.000000"
 preserveAspectRatio="xMidYMid meet">

<g transform="translate(0.000000,768.000000) scale(0.100000,-0.100000)"
fill="#000000" stroke="none">
<path d="M4940 7631 c0 -13 22 -19 112 -30 46 -6 126 -15 179 -22 177 -21 162
-41 -51 -70 -138 -18 -295 -49 -705 -136 -86 -19 -153 -26 -235 -27 -103 -1
-120 1 -162 23 -26 14 -58 35 -70 48 -49 53 -63 12 -24 -73 21 -46 42 -68 126
-133 23 -18 24 -21 9 -36 -25 -25 -89 -29 -153 -11 -100 29 -181 125 -193 227
-8 77 -18 90 -33 44 -17 -52 -8 -150 20 -205 12 -25 40 -62 63 -83 37 -34 39
-39 25 -54 -24 -23 -95 -27 -161 -8 -107 31 -162 105 -195 257 -17 81 -18 83
-48 86 -25 2 -41 -6 -81 -42 -71 -64 -96 -125 -100 -246 -5 -126 -8 -135 -44
-158 -18 -11 -45 -45 -63 -78 -22 -42 -41 -64 -66 -76 -19 -10 -46 -35 -60
-55 -39 -56 -73 -53 -122 12 -21 28 -45 73 -54 100 -8 28 -18 57 -21 65 -3 11
-9 7 -19 -13 -16 -29 -49 -47 -90 -47 -13 0 -41 -15 -64 -36 -69 -63 -94 -169
-71 -309 6 -31 5 -70 -2 -101 -9 -45 -8 -58 12 -103 28 -65 27 -177 -1 -195
-29 -18 -49 3 -93 92 -22 45 -43 81 -47 82 -13 0 -9 -100 7 -172 23 -110 57
-179 154 -312 92 -125 158 -191 282 -284 35 -26 65 -55 67 -65 2 -9 -12 -50
-31 -90 -19 -39 -40 -85 -46 -101 -33 -80 -144 -172 -236 -195 -52 -13 -58
-32 -19 -58 37 -24 109 -22 172 5 46 20 56 21 79 10 30 -14 33 -22 63 -183 38
-201 75 -310 164 -490 95 -192 119 -252 114 -286 -4 -33 -33 -35 -136 -9 -144
37 -225 17 -313 -77 -141 -151 -145 -485 -8 -756 51 -101 101 -175 195 -287
133 -159 203 -210 284 -210 47 0 69 9 127 56 23 19 43 34 46 34 7 0 34 -68 76
-187 83 -241 200 -370 551 -608 227 -154 516 -364 547 -397 37 -39 49 -78 63
-217 13 -131 13 -237 0 -262 -9 -16 -22 -19 -78 -19 -101 -1 -188 -16 -221
-40 -17 -11 -56 -57 -87 -101 -34 -49 -80 -99 -117 -127 -106 -81 -151 -132
-176 -200 -13 -35 -34 -71 -47 -81 -13 -10 -72 -38 -131 -61 -177 -69 -322
-152 -464 -266 -57 -45 -68 -59 -78 -100 -7 -26 -30 -76 -52 -113 l-40 -66
340 -3 c187 -1 495 -1 685 0 l345 3 -51 60 c-61 74 -137 185 -166 246 -15 31
-33 51 -56 62 -43 20 -39 47 10 73 29 16 34 23 29 44 -11 52 -8 98 11 128 10
18 23 32 29 32 6 0 26 -32 45 -71 19 -40 39 -71 44 -70 5 2 13 -3 17 -11 6 -9
9 -9 9 -1 0 6 -4 15 -10 18 -5 3 -10 15 -10 25 0 17 3 18 31 8 17 -6 71 -37
121 -70 96 -63 211 -114 280 -124 l43 -6 -37 34 c-26 24 -62 41 -129 62 -51
15 -105 37 -121 49 l-29 22 28 7 c15 4 77 7 137 7 152 -1 145 -10 156 220 6
139 12 188 24 207 9 13 20 24 23 24 4 0 30 -23 59 -51 43 -42 55 -49 77 -44
21 6 28 16 41 68 8 34 20 131 26 214 6 91 17 167 26 189 22 53 7 84 -41 84
-25 0 -34 4 -29 12 4 7 3 8 -5 4 -14 -9 -51 2 -51 14 0 6 11 12 25 16 14 3 25
10 25 15 0 5 19 10 43 10 29 2 34 3 14 6 -24 4 -26 8 -21 30 6 21 4 25 -9 20
-19 -7 -33 23 -15 35 10 6 7 10 -9 14 -14 4 -35 28 -54 60 -17 30 -34 54 -39
54 -17 0 -60 104 -60 147 0 52 29 114 65 137 15 10 35 26 46 37 10 10 25 19
32 19 7 0 24 12 38 28 20 22 24 38 25 94 0 37 -3 65 -8 62 -15 -9 -8 33 7 46
21 17 12 25 -42 40 -82 23 -81 44 4 54 141 17 389 77 478 117 25 11 45 21 45
23 0 1 -33 -6 -72 -16 -62 -16 -91 -18 -193 -11 -66 4 -172 8 -236 8 -101 0
-122 3 -167 24 -62 29 -64 42 -19 110 35 54 72 81 110 81 20 0 28 8 42 43 20
49 52 87 75 87 9 0 21 5 27 11 6 6 48 17 93 25 106 16 134 34 125 77 -18 85
-106 134 -182 102 -55 -23 -83 -54 -90 -98 -7 -44 -25 -67 -54 -67 -24 0 -24
3 0 68 11 28 17 52 13 52 -3 0 -1 5 6 12 14 14 17 168 3 168 -5 0 -15 16 -21
35 -6 19 -18 35 -26 35 -8 0 -14 7 -14 15 0 8 -4 15 -10 15 -5 0 -10 7 -10 15
0 9 -10 20 -22 25 -13 5 -18 9 -13 10 6 0 4 4 -4 9 -8 5 -14 23 -14 40 0 17
-4 31 -8 31 -13 0 -41 64 -29 68 5 2 8 7 5 12 -3 5 0 21 7 37 6 15 13 51 15
78 2 28 8 64 14 80 15 43 31 551 25 810 -4 212 -10 293 -24 325 -3 8 -7 20 -7
25 -6 35 -19 64 -32 69 -8 3 -11 10 -8 16 3 5 -3 10 -15 10 -13 0 -24 9 -30
25 -5 14 -16 25 -25 25 -8 0 -15 5 -15 10 0 6 -5 10 -11 10 -6 0 -28 13 -48
29 -20 16 -40 28 -46 27 -5 0 -11 9 -13 22 -2 12 -8 22 -13 22 -5 0 -9 25 -9
56 0 34 4 53 10 49 6 -3 10 3 10 14 0 12 -4 21 -9 21 -5 0 -15 24 -23 53 -11
38 -19 51 -32 49 -28 -5 -14 40 26 82 11 12 24 32 29 44 5 13 18 26 29 29 11
3 20 12 20 19 0 8 4 14 8 14 5 0 27 17 50 38 22 20 57 51 77 67 20 17 51 42
68 57 62 53 110 88 122 88 6 0 20 9 30 20 10 11 23 20 28 20 5 0 28 8 51 19
41 18 97 39 126 46 8 2 44 11 80 20 87 21 295 30 400 17 181 -23 407 -109 505
-192 74 -63 86 -82 136 -221 54 -148 71 -214 120 -449 54 -265 73 -341 120
-483 64 -194 68 -223 79 -572 15 -496 21 -645 30 -650 10 -6 36 25 45 55 9 32
34 60 52 60 8 0 26 -13 39 -30 20 -23 32 -29 55 -26 16 2 32 0 35 -5 2 -4 11
-6 19 -3 8 3 20 0 27 -8 27 -28 68 -87 68 -98 0 -27 44 -2 66 38 34 60 34 145
0 191 -28 37 -49 50 -121 73 -90 28 -122 31 -156 11 -30 -18 -31 -17 -46 2
-12 17 -14 46 -8 175 3 85 8 164 11 177 4 12 21 32 40 44 35 21 46 49 18 49
-11 0 -14 6 -9 23 15 47 78 193 151 349 63 134 132 316 184 481 5 15 12 72 15
125 8 121 18 155 60 196 30 31 34 40 39 112 3 44 11 99 18 124 18 70 14 89
-25 121 -43 35 -101 113 -114 153 -6 21 -4 42 7 77 9 27 15 62 12 79 -4 28 -6
30 -41 24 -70 -11 -145 24 -164 77 -3 9 1 29 9 44 8 15 12 30 10 32 -2 3 -24
7 -48 10 -66 7 -96 22 -103 50 -8 34 2 62 40 104 112 125 147 354 76 505 -28
60 -70 99 -88 81 -3 -4 1 -38 10 -76 20 -81 21 -121 6 -193 -25 -119 -112
-248 -197 -292 -41 -21 -205 -17 -228 6 -10 10 -20 61 -30 154 -39 376 -173
671 -400 885 -157 147 -384 247 -614 268 -158 14 -610 23 -610 12z m853 -438
c-13 -2 -35 -2 -50 0 -16 2 -5 4 22 4 28 0 40 -2 28 -4z m64 -9 c-3 -3 -12 -4
-19 -1 -8 3 -5 6 6 6 11 1 17 -2 13 -5z m83 -20 l25 -15 -25 7 c-14 3 -32 10
-40 15 -13 7 -13 8 0 8 8 0 26 -6 40 -15z m-1638 -2759 c61 -18 139 -66 173
-107 30 -36 65 -110 64 -135 0 -14 -2 -15 -6 -3 -3 8 -19 34 -35 57 -64 94
-202 130 -309 81 -65 -30 -116 -78 -140 -133 -74 -169 16 -363 189 -407 43
-11 57 -28 23 -28 -10 0 -24 -7 -31 -15 -7 -9 -32 -24 -54 -35 -114 -51 -185
-50 -337 6 -103 38 -149 101 -157 215 -5 80 22 211 60 283 32 62 113 126 158
126 13 0 18 5 13 15 -3 9 -2 15 3 14 5 -1 22 3 37 9 16 7 33 12 38 12 5 0 9 5
9 10 0 6 8 10 18 10 10 0 22 4 28 10 25 25 189 35 256 15z m162 -234 c15 -16
15 -19 2 -24 -14 -5 -36 18 -36 37 0 12 18 5 34 -13z m551 -2701 c3 -5 1 -10
-4 -10 -6 0 -11 5 -11 10 0 6 2 10 4 10 3 0 8 -4 11 -10z"/>
<path d="M5456 5354 c-9 -8 -16 -20 -16 -25 0 -16 -18 -9 -22 9 -3 13 -9 9
-27 -18 -13 -19 -43 -50 -67 -68 -44 -33 -94 -113 -94 -151 0 -11 8 -27 18
-37 9 -10 17 -22 17 -28 0 -6 18 -12 40 -13 22 -2 94 -7 160 -13 66 -5 154
-11 195 -12 41 -1 81 -6 88 -11 7 -5 31 -11 54 -14 23 -2 45 -8 48 -13 3 -5
23 -11 43 -12 20 -2 37 -6 37 -10 0 -4 18 -6 40 -4 22 2 40 0 40 -4 0 -4 24
-10 53 -13 67 -7 160 -39 269 -94 91 -46 136 -90 197 -193 21 -37 27 -41 29
-24 13 90 -163 350 -317 468 -55 43 -220 126 -273 140 -16 3 -28 11 -28 16 0
6 -11 10 -25 10 -14 0 -25 4 -25 9 0 4 -19 11 -42 14 -22 3 -54 15 -69 26 -20
15 -37 19 -53 15 -16 -4 -39 2 -65 16 -37 22 -62 23 -103 5 -13 -5 -18 -2 -18
10 0 13 -6 16 -21 12 -12 -3 -22 0 -26 9 -7 18 -18 18 -37 -2z"/>
<path d="M5935 4822 c-3 -3 -24 -7 -48 -9 -26 -2 -48 -11 -59 -23 -9 -11 -21
-20 -27 -20 -11 0 -61 -62 -61 -76 0 -6 -13 -28 -30 -51 -16 -22 -27 -42 -25
-45 3 -3 -17 -30 -45 -62 -96 -109 -171 -314 -169 -456 2 -60 3 -67 8 -35 5
30 8 10 13 -75 4 -63 13 -130 20 -148 8 -18 38 -57 66 -87 29 -30 52 -60 52
-66 0 -48 229 -129 364 -129 107 0 112 15 9 29 -48 6 -101 15 -118 19 -28 8
-27 9 23 16 28 4 52 10 52 14 0 4 -35 15 -77 25 -43 9 -107 31 -143 48 -65 30
-140 92 -140 115 0 7 -7 19 -15 27 -14 15 -17 30 -31 142 -10 86 43 315 90
386 49 73 158 132 269 145 123 14 278 -46 381 -150 76 -76 118 -155 150 -280
14 -54 26 -100 28 -101 2 -2 14 -5 28 -7 17 -2 24 1 22 11 -10 47 -31 129 -37
144 -6 15 0 17 51 18 l59 0 -50 15 c-61 19 -98 50 -75 64 13 8 12 12 -7 25
-33 23 -29 31 20 41 l42 8 -37 4 c-45 4 -49 17 -10 28 26 7 26 8 -13 14 l-40
5 40 22 c37 20 38 22 15 24 -14 1 -41 1 -61 0 -32 -2 -45 5 -101 56 -36 32
-87 70 -115 85 -93 51 -229 73 -338 55 -49 -8 -49 -8 -26 9 17 13 20 18 10 25
-10 6 -5 11 16 20 88 35 251 13 378 -50 42 -21 77 -37 77 -35 0 13 -43 86 -62
106 -28 28 -80 65 -110 78 -13 6 -30 14 -38 20 -30 20 -168 69 -175 62z"/>
<path d="M5754 4311 c-52 -24 -96 -67 -126 -122 -19 -37 -23 -59 -23 -139 0
-82 3 -101 24 -137 68 -119 215 -169 334 -113 62 29 130 106 147 166 24 86 12
176 -30 222 -18 20 -30 27 -33 19 -3 -6 -6 0 -6 14 -1 34 -56 84 -108 98 -57
16 -133 13 -179 -8z"/>
<path d="M7278 3984 c-30 -9 -29 -33 2 -49 53 -27 115 -159 149 -317 11 -49
22 -92 24 -95 13 -13 26 12 37 73 23 119 -8 285 -64 350 -27 32 -38 37 -81 40
-28 1 -57 0 -67 -2z"/>
<path d="M6800 2866 c0 -9 5 -16 10 -16 6 0 10 4 10 9 0 6 -4 13 -10 16 -5 3
-10 -1 -10 -9z"/>
<path d="M5987 2843 c-4 -3 -7 -15 -7 -25 0 -23 -17 -24 -23 0 -4 16 -5 16 -6
0 -2 -30 -61 -131 -94 -160 -18 -16 -54 -42 -80 -59 -26 -18 -46 -33 -44 -36
4 -3 103 29 158 51 10 5 24 -2 40 -20 65 -72 72 -76 114 -70 46 7 76 38 101
102 14 36 14 47 1 90 -8 27 -12 55 -10 61 4 12 -9 21 -39 27 -41 9 -68 19 -68
28 0 5 -5 6 -11 2 -6 -3 -14 -1 -18 5 -4 6 -10 8 -14 4z"/>
<path d="M5685 2550 c-19 -8 -19 -9 2 -9 12 -1 25 4 28 9 7 12 -2 12 -30 0z"/>
<path d="M5120 1480 c0 -5 6 -10 14 -10 8 0 18 5 21 10 3 6 -3 10 -14 10 -12
0 -21 -4 -21 -10z"/>
<path d="M5726 1152 c-9 -28 18 -107 60 -175 53 -86 55 -125 9 -264 -32 -97
-35 -117 -26 -149 6 -21 8 -48 5 -60 -5 -17 -1 -23 16 -26 21 -3 21 -4 -9 -45
-17 -23 -33 -55 -37 -70 -3 -15 -33 -83 -65 -150 -32 -66 -68 -142 -79 -167
l-19 -46 79 0 79 0 54 68 c94 118 168 236 181 286 5 20 2 34 -10 47 -10 11
-15 22 -11 25 10 10 47 -7 58 -27 12 -23 -9 -70 -91 -209 -54 -92 -58 -102
-35 -94 8 4 15 2 15 -3 0 -16 191 13 241 36 69 31 137 95 145 137 4 23 15 39
33 49 28 14 30 13 -43 35 -21 7 -71 28 -110 48 -50 25 -89 37 -131 40 -73 5
-88 17 -57 42 26 21 28 33 7 50 -18 15 -20 121 -4 190 33 143 -14 380 -84 424
-12 7 -54 17 -94 20 -64 6 -72 5 -77 -12z"/>
<path d="M5305 848 c-22 -35 -45 -79 -51 -98 -6 -19 -16 -46 -23 -59 -9 -15
-14 -82 -17 -192 l-4 -169 40 0 c33 0 42 4 54 28 21 41 35 123 46 272 6 74 13
168 16 208 8 93 -6 95 -61 10z"/>
</g>
</svg>
