<svg xmlns="http://www.w3.org/2000/svg" width="16" height="16" viewBox="0 0 16 16" fill="none"><g clip-path="url(#tp)"><path d="M11.335.889H4.668a2.445 2.445 0 0 0-2.444 2.444v1.111H1.557a.667.667 0 1 0 0 1.334h.667v1.555H1.557a.667.667 0 1 0 0 1.334h.667v1.555H1.557a.667.667 0 1 0 0 1.334h.667v1.11a2.445 2.445 0 0 0 2.444 2.445h6.667a2.445 2.445 0 0 0 2.444-2.444V3.333a2.445 2.445 0 0 0-2.444-2.444ZM3.557 12.667v-1.111h.667a.667.667 0 1 0 0-1.334h-.667V8.667h.667a.667.667 0 1 0 0-1.334h-.667V5.778h.667a.667.667 0 1 0 0-1.334h-.667V3.333c0-.613.499-1.111 1.111-1.111h1.556v11.556H4.668a1.111 1.111 0 0 1-1.111-1.111Z" fill="#8D8D8D"/></g><defs><clipPath id="tp"><rect width="16" height="16" fill="white"/></clipPath></defs></svg>
