<svg xmlns="http://www.w3.org/2000/svg" width="16" height="16" viewBox="0 0 16 16" fill="none"><path d="M10 7.111H8.666V5.555a.667.667 0 0 0-1.333 0v1.556H6A2.445 2.445 0 0 0 3.555 9.555v.89a.667.667 0 1 0 1.333 0v-.89c0-.612.499-1.111 1.111-1.111h4c.613 0 1.111.499 1.111 1.111v.89a.667.667 0 1 0 1.334 0v-.89A2.445 2.445 0 0 0 10 7.111Z" fill="#8D8D8D"/><path d="M9.11.889H6.888a1.556 1.556 0 0 0-1.556 1.555v2.222a1.556 1.556 0 0 0 1.556 1.556H9.11a1.556 1.556 0 0 0 1.555-1.556V2.444A1.556 1.556 0 0 0 9.11.889Z" fill="#8D8D8D"/><path d="M5.332 9.777H3.11a1.556 1.556 0 0 0-1.556 1.556v2.222a1.556 1.556 0 0 0 1.556 1.556h2.222a1.556 1.556 0 0 0 1.556-1.556v-2.222a1.556 1.556 0 0 0-1.556-1.556Z" fill="#8D8D8D"/><path d="M12.887 9.777h-2.222a1.556 1.556 0 0 0-1.556 1.556v2.222a1.556 1.556 0 0 0 1.556 1.556h2.222a1.556 1.556 0 0 0 1.556-1.556v-2.222a1.556 1.556 0 0 0-1.556-1.556Z" fill="#8D8D8D"/></svg>
