<svg xmlns="http://www.w3.org/2000/svg" width="16" height="16" viewBox="0 0 16 16" fill="none"><g clip-path="url(#wf)"><path d="M8.002 8.891a2.002 2.002 0 1 0 0-4.004 2.002 2.002 0 0 0 0 4.004Z" fill="#8D8D8D"/><path fill-rule="evenodd" clip-rule="evenodd" d="M3.96 13.282c.505-1.757 2.111-3.059 4.042-3.059 1.932 0 3.536 1.302 4.043 3.06a1.002 1.002 0 0 1-.288.75A7.958 7.958 0 0 1 8.002 15.11a7.96 7.96 0 0 1-3.755-1.079 1.002 1.002 0 0 1-.287-.75Z" fill="#8D8D8D"/><path fill-rule="evenodd" clip-rule="evenodd" d="M.891 8A7.111 7.111 0 1 1 8.002 15.11 7.111 7.111 0 0 1 .89 8Zm7.111-5.778a5.778 5.778 0 1 0 0 11.556 5.778 5.778 0 0 0 0-11.556Z" fill="#8D8D8D"/></g><defs><clipPath id="wf"><rect width="16" height="16" fill="white"/></clipPath></defs></svg>
